# xmcd
#
# Track frame offsets:
# 150
# 32246
# 67769
# 96560
# 132226
# 167965
# 197729
# 232700
# 268708
# 314184
#
# Disc length: 4488 seconds
#
# Revision: 0
# Processed by: cddbd v1.5.2PL0 Copyright (c) Steve Scherf et al.
# Submitted via: Audion 3.0.2 (http://www.panic.com/audion/)
#
DISCID=8f11860a
DTITLE=Metallica - Death Magnetic
DYEAR=1900
DGENRE=
TTITLE0=That Was Just Your Life
TTITLE1=The End Of The Line
TTITLE2=Broken, Beat and Scarred
TTITLE3=The Day That Never Comes
TTITLE4=All Nightmare Long
TTITLE5=Cyanide
TTITLE6=The Unforgiven III
TTITLE7=The Judas Kiss
TTITLE8=Suicide and Redemption
TTITLE9=My Apocalypse
EXTD=
EXTT0=
EXTT1=
EXTT2=
EXTT3=
EXTT4=
EXTT5=
EXTT6=
EXTT7=
EXTT8=
EXTT9=
PLAYORDER=
